<?xml version="1.0" standalone="no"?>
<!DOCTYPE svg PUBLIC "-//W3C//DTD SVG 20010904//EN"
 "http://www.w3.org/TR/2001/REC-SVG-20010904/DTD/svg10.dtd">
<svg version="1.0" xmlns="http://www.w3.org/2000/svg"
 width="1259.000000pt" height="1280.000000pt" viewBox="0 0 1259.000000 1280.000000"
 preserveAspectRatio="xMidYMid meet">
<g transform="translate(0.000000,1280.000000) scale(0.100000,-0.100000)"
fill="#000000" stroke="none">
<path d="M7590 12338 c-749 -859 -1304 -1476 -1610 -1792 -122 -125 -131 -137
-90 -116 25 13 236 126 469 252 233 127 449 239 480 249 239 83 473 94 699 34
204 -54 319 -134 531 -369 243 -269 382 -384 511 -423 92 -28 252 -22 470 17
241 43 411 47 537 11 90 -25 262 -106 483 -228 390 -214 515 -237 730 -136
129 61 236 186 315 369 19 44 41 80 49 82 8 2 288 -248 623 -556 334 -307 626
-574 648 -593 49 -42 63 -61 -221 303 -378 485 -871 1147 -1541 2072 -175 242
-323 441 -328 443 -6 2 -67 -59 -135 -134 -144 -158 -856 -880 -882 -894 -53
-29 -180 114 -490 551 -145 205 -789 1188 -838 1280 -6 11 -14 20 -18 20 -4
-1 -180 -199 -392 -442z"/>
<path d="M5919 8995 c-174 -39 -328 -134 -438 -270 -172 -213 -221 -492 -132
-753 42 -120 84 -185 191 -292 108 -108 199 -163 335 -202 113 -32 306 -33
418 0 272 78 487 299 553 567 24 94 24 276 0 370 -23 94 -94 236 -155 312 -96
117 -251 218 -396 258 -85 23 -292 29 -376 10z"/>
<path d="M4714 7765 c-220 -48 -466 -258 -1145 -980 -467 -497 -547 -588 -654
-750 -164 -248 -210 -398 -185 -600 14 -116 34 -182 80 -275 104 -207 213
-298 710 -592 322 -191 546 -314 880 -488 151 -78 277 -144 279 -146 1 -1 4
-441 6 -976 2 -684 6 -986 14 -1016 32 -123 105 -210 224 -266 90 -43 154 -56
266 -56 197 0 282 68 329 262 16 68 17 166 14 1388 -3 974 -7 1318 -15 1327
-7 7 -298 189 -647 406 -349 216 -636 400 -638 409 -3 16 879 951 903 956 8 2
43 -48 85 -120 40 -68 106 -177 148 -243 41 -66 111 -180 155 -253 49 -81 97
-148 123 -171 82 -72 88 -73 654 -82 740 -12 843 0 944 111 60 66 96 170 96
275 0 156 -70 231 -261 279 -155 39 -303 50 -579 41 -135 -4 -276 -8 -315 -9
l-70 -1 -21 40 c-296 561 -413 770 -565 1017 -112 179 -170 248 -288 344 -205
164 -343 209 -527 169z"/>
<path d="M1957 4405 c-395 -50 -745 -190 -1062 -424 -55 -40 -163 -137 -241
-215 -361 -363 -559 -771 -631 -1302 -50 -366 17 -785 184 -1160 171 -384 495
-749 865 -975 242 -148 541 -255 819 -294 63 -8 150 -20 194 -26 86 -12 203
-9 355 10 531 66 983 283 1340 642 661 665 830 1675 421 2514 -321 657 -931
1108 -1651 1220 -144 22 -456 28 -593 10z m463 -405 c211 -27 384 -77 570
-166 513 -246 877 -718 992 -1284 20 -99 23 -145 23 -335 0 -246 -15 -349 -81
-555 -44 -136 -157 -360 -242 -480 -170 -238 -416 -447 -677 -574 -675 -330
-1477 -208 -2020 307 -747 706 -753 1880 -14 2592 182 175 355 287 587 381
103 41 277 88 382 103 41 6 86 13 100 15 57 8 301 5 380 -4z"/>
<path d="M7785 4410 c-877 -98 -1608 -692 -1874 -1523 -136 -426 -136 -917 0
-1344 256 -798 958 -1394 1779 -1508 63 -8 143 -20 176 -25 79 -13 207 -13
292 0 37 5 118 17 181 26 602 82 1171 445 1513 963 134 202 233 424 293 656
53 204 69 331 69 560 0 229 -16 356 -69 560 -221 848 -927 1483 -1800 1620
-118 19 -447 27 -560 15z m435 -411 c254 -31 498 -114 709 -241 490 -293 808
-790 870 -1360 15 -132 14 -240 -4 -388 -86 -736 -617 -1346 -1332 -1531 -683
-176 -1390 58 -1849 611 -166 200 -307 503 -366 785 -20 97 -23 138 -23 345 1
267 12 343 86 565 215 646 784 1118 1459 1210 119 16 338 18 450 4z"/>
</g>
</svg>
