<?xml version="1.0" encoding="UTF-8"?>
<svg version="1.1" xmlns="http://www.w3.org/2000/svg" width="60" height="60">
<path d="M0 0 C19.8 0 39.6 0 60 0 C60 19.8 60 39.6 60 60 C40.2 60 20.4 60 0 60 C0 40.2 0 20.4 0 0 Z " fill="#FDFEFD" transform="translate(0,0)"/>
<path d="M0 0 C1.9375 0.8125 1.9375 0.8125 4 2 C5 5 5 5 4.9375 8.5625 C4.60338936 12.06614641 4.60338936 12.06614641 7 14 C9.04707679 14.05275424 9.04707679 14.05275424 11.3125 13.8125 C15.28871781 13.69064816 15.7698478 13.81212066 19.0625 16.5 C19.701875 17.325 20.34125 18.15 21 19 C19.60982588 22.13578312 17.98666305 24.26011864 15.55859375 26.671875 C14.89279297 27.33574219 14.22699219 27.99960937 13.54101562 28.68359375 C12.84685547 29.36550781 12.15269531 30.04742187 11.4375 30.75 C10.73947266 31.44738281 10.04144531 32.14476562 9.32226562 32.86328125 C4.14031158 38 4.14031158 38 3 38 C2.20228016 29.22508174 5.77361816 23.80502503 11 17 C10.2575 16.896875 9.515 16.79375 8.75 16.6875 C5.82985982 15.95746496 4.26812446 14.93210602 2 13 C2.61875 13.61875 3.2375 14.2375 3.875 14.875 C5.25 16.25 6.625 17.625 8 19 C7.360625 19.928125 6.72125 20.85625 6.0625 21.8125 C3.31469932 26.05910105 2.81092457 29.22628784 2.4375 34.1875 C2.35371094 35.27417969 2.26992188 36.36085937 2.18359375 37.48046875 C2.09271484 38.72763672 2.09271484 38.72763672 2 40 C1.34 40 0.68 40 0 40 C-3.98223447 33.44858201 -5.41066258 28.80258906 -5 21 C-4 17.5625 -4 17.5625 -3 15 C-6.73997229 20.60995843 -6.11406407 26.47300069 -6 33 C-10.56030824 29.19524578 -14.85089392 25.25030379 -19 21 C-17.54254576 17.63664406 -15.68882146 15.45465995 -13.0859375 12.890625 C-12.32539063 12.13652344 -11.56484375 11.38242187 -10.78125 10.60546875 C-9.9871875 9.82816406 -9.193125 9.05085938 -8.375 8.25 C-7.57320312 7.45722656 -6.77140625 6.66445313 -5.9453125 5.84765625 C-3.96797154 3.89385507 -1.98611091 1.94487897 0 0 Z " fill="#0765A5" transform="translate(29,10)"/>
<path d="M0 0 C0.33 0 0.66 0 1 0 C1.309375 0.969375 1.61875 1.93875 1.9375 2.9375 C2.69523342 5.84065792 2.69523342 5.84065792 4 7 C5.41790549 6.94140886 6.83463502 6.85310606 8.25 6.75 C12.23131822 6.67380252 12.77880653 6.81943391 16.0625 9.5 C16.701875 10.325 17.34125 11.15 18 12 C16.60982588 15.13578312 14.98666305 17.26011864 12.55859375 19.671875 C11.89279297 20.33574219 11.22699219 20.99960937 10.54101562 21.68359375 C9.84685547 22.36550781 9.15269531 23.04742187 8.4375 23.75 C7.73947266 24.44738281 7.04144531 25.14476563 6.32226562 25.86328125 C1.14031158 31 1.14031158 31 0 31 C-0.79771984 22.22508174 2.77361816 16.80502503 8 10 C7.2575 9.9175 6.515 9.835 5.75 9.75 C2.38795982 8.83307995 1.03535835 7.81818848 -1 5 C-0.75 2.25 -0.75 2.25 0 0 Z " fill="#226EA3" transform="translate(32,17)"/>
<path d="M0 0 C0.66 0 1.32 0 2 0 C2.45375 0.763125 2.9075 1.52625 3.375 2.3125 C5.00525469 5.00869044 6.39735892 6.29482136 9 8 C8.360625 8.928125 7.72125 9.85625 7.0625 10.8125 C4.31469932 15.05910105 3.81092457 18.22628784 3.4375 23.1875 C3.35371094 24.27417969 3.26992188 25.36085938 3.18359375 26.48046875 C3.12300781 27.31191406 3.06242187 28.14335938 3 29 C2.34 29 1.68 29 1 29 C-2.92574255 22.54152032 -4.63216039 17.71235673 -4 10 C-2.8545493 6.57865381 -1.48197061 3.2881223 0 0 Z " fill="#E72249" transform="translate(28,21)"/>
<path d="M0 0 C0.99 0.33 1.98 0.66 3 1 C2.236875 1.598125 1.47375 2.19625 0.6875 2.8125 C-3.38706898 5.76141429 -3.38706898 5.76141429 -5.375 10.0625 C-5.58125 10.701875 -5.7875 11.34125 -6 12 C-6.78375 12.309375 -7.5675 12.61875 -8.375 12.9375 C-11.16296647 13.82686985 -11.16296647 13.82686985 -12.9375 16.3125 C-14.27817563 18.95852855 -14.27817563 18.95852855 -13.375 21.6875 C-12.06597401 24.26778872 -12.06597401 24.26778872 -9 26 C-8.34 23.36 -7.68 20.72 -7 18 C-6.67 18 -6.34 18 -6 18 C-6 22.95 -6 27.9 -6 33 C-10.55451723 29.17420552 -14.84530689 25.25602708 -19 21 C-17.54254576 17.63664406 -15.68882146 15.45465995 -13.0859375 12.890625 C-12.32539063 12.13652344 -11.56484375 11.38242187 -10.78125 10.60546875 C-9.9871875 9.82816406 -9.193125 9.05085938 -8.375 8.25 C-7.57320312 7.45722656 -6.77140625 6.66445313 -5.9453125 5.84765625 C-3.96797154 3.89385507 -1.98611091 1.94487897 0 0 Z " fill="#236699" transform="translate(29,10)"/>
<path d="M0 0 C1.2065625 0.0309375 1.2065625 0.0309375 2.4375 0.0625 C2.7675 1.3825 3.0975 2.7025 3.4375 4.0625 C1.4575 5.0525 1.4575 5.0525 -0.5625 6.0625 C-0.418125 6.743125 -0.27375 7.42375 -0.125 8.125 C-0.80897754 12.71742063 -4.08675367 15.17021229 -7.5625 18.0625 C-7.8925 18.0625 -8.2225 18.0625 -8.5625 18.0625 C-9.20200898 11.02790118 -7.45740618 6.89847418 -3.5625 1.0625 C-2.5625 0.0625 -2.5625 0.0625 0 0 Z " fill="#0267B0" transform="translate(40.5625,29.9375)"/>
<path d="M0 0 C0.33 0.66 0.66 1.32 1 2 C0.525625 2.969375 0.05125 3.93875 -0.4375 4.9375 C-2.41736725 9.15470602 -2.11913529 12.97289856 -1.8125 17.546875 C-2 20 -2 20 -3.5 21.828125 C-3.995 22.21484375 -4.49 22.6015625 -5 23 C-8.875 20.375 -8.875 20.375 -10 17 C-10.99 16.67 -11.98 16.34 -13 16 C-13 15.34 -13 14.68 -13 14 C-13.66 14 -14.32 14 -15 14 C-15 13.34 -15 12.68 -15 12 C-16.32 11.34 -17.64 10.68 -19 10 C-18.67 8.68 -18.34 7.36 -18 6 C-16 7 -16 7 -15.1640625 8.765625 C-13.66830923 11.6366682 -11.69237768 13.49883311 -9.375 15.75 C-8.55773438 16.54921875 -7.74046875 17.3484375 -6.8984375 18.171875 C-6.27195312 18.77515625 -5.64546875 19.3784375 -5 20 C-5.02320313 19.43152344 -5.04640625 18.86304687 -5.0703125 18.27734375 C-5.2307146 11.41442514 -4.72668922 5.37123775 0 0 Z " fill="#E5F9FD" transform="translate(27,22)"/>
<path d="M0 0 C0.78375 0.04125 1.5675 0.0825 2.375 0.125 C2.705 0.785 3.035 1.445 3.375 2.125 C2.715 2.785 2.055 3.445 1.375 4.125 C0.715 3.795 0.055 3.465 -0.625 3.125 C-0.295 3.785 0.035 4.445 0.375 5.125 C0.50915472 7.7973621 0.41818541 10.44750488 0.375 13.125 C-2.625 13.125 -2.625 13.125 -4.9375 11 C-6.625 8.125 -6.625 8.125 -6 4.9375 C-3.67158722 0.17483749 -3.67158722 0.17483749 0 0 Z " fill="#0369B1" transform="translate(20.625,22.875)"/>
<path d="M0 0 C0.66 0 1.32 0 2 0 C2.45375 0.763125 2.9075 1.52625 3.375 2.3125 C5.00525469 5.00869044 6.39735892 6.29482136 9 8 C8.360625 8.928125 7.72125 9.85625 7.0625 10.8125 C4.31469932 15.05910105 3.81092457 18.22628784 3.4375 23.1875 C3.35371094 24.27417969 3.26992188 25.36085938 3.18359375 26.48046875 C3.12300781 27.31191406 3.06242187 28.14335938 3 29 C2.34 29 1.68 29 1 29 C0.34 27.68 -0.32 26.36 -1 25 C-0.34 25 0.32 25 1 25 C1.10957031 23.86820313 1.21914063 22.73640625 1.33203125 21.5703125 C1.49147061 20.08846436 1.65166618 18.60669744 1.8125 17.125 C1.88275391 16.37863281 1.95300781 15.63226563 2.02539062 14.86328125 C2.24710223 12.89448223 2.61579339 10.94363342 3 9 C3.99 8.34 4.98 7.68 6 7 C5.01 7 4.02 7 3 7 C2.34 6.34 1.68 5.68 1 5 C0.34 5 -0.32 5 -1 5 C-0.67 3.35 -0.34 1.7 0 0 Z " fill="#CB4164" transform="translate(28,21)"/>
<path d="M0 0 C2.5625 0.1875 2.5625 0.1875 4.5625 2.1875 C4.8125 4.6875 4.8125 4.6875 4.5625 7.1875 C3.9025 7.8475 3.2425 8.5075 2.5625 9.1875 C-1.99305556 8.63194444 -1.99305556 8.63194444 -3.4375 7.1875 C-3.5625 4.1875 -3.5625 4.1875 -3.4375 1.1875 C-2.4375 0.1875 -2.4375 0.1875 0 0 Z " fill="#D03258" transform="translate(38.4375,13.8125)"/>
<path d="M0 0 C0.721875 0.61875 1.44375 1.2375 2.1875 1.875 C4.78381938 3.83666353 6.94671666 4.95316 10 6 C8.99080015 8.08411503 7.94295547 10.0945411 6.74609375 12.078125 C3.67409595 17.17672433 2.32448347 21.05113638 2 27 C1.67 27 1.34 27 1 27 C0.53122457 20.64548858 0.85214628 16.1394188 4.125 10.59375 C5.1604196 9.0108319 5.1604196 9.0108319 5 7 C4.175 6.175 3.35 5.35 2.5 4.5 C1.675 3.675 0.85 2.85 0 2 C0 1.34 0 0.68 0 0 Z " fill="#E5D4E8" transform="translate(30,21)"/>
<path d="M0 0 C0.33 0 0.66 0 1 0 C1 4.95 1 9.9 1 15 C-3.53287116 11.26704728 -7.37382288 7.61513452 -11 3 C-7 3 -7 3 -4.25 5.5 C-3.13625 6.7375 -3.13625 6.7375 -2 8 C-1.34 5.36 -0.68 2.72 0 0 Z " fill="#2B73A0" transform="translate(22,28)"/>
<path d="M0 0 C1 3 1 3 0.00390625 5.04296875 C-0.47175781 5.75066406 -0.94742188 6.45835938 -1.4375 7.1875 C-1.91058594 7.90292969 -2.38367187 8.61835937 -2.87109375 9.35546875 C-3.24363281 9.89816406 -3.61617187 10.44085938 -4 11 C-2.68 11 -1.36 11 0 11 C-1.39332574 14.36720387 -2.9789286 15.9859524 -6 18 C-6.63950898 10.96540118 -4.89490618 6.83597418 -1 1 C-0.67 0.67 -0.34 0.34 0 0 Z " fill="#1F6B9C" transform="translate(38,30)"/>
<path d="M0 0 C0.66 0.33 1.32 0.66 2 1 C1.42619828 4.66377743 0.02730342 6.32767225 -2.59765625 8.890625 C-3.31630859 9.59960938 -4.03496094 10.30859375 -4.77539062 11.0390625 C-5.53013672 11.76867188 -6.28488281 12.49828125 -7.0625 13.25 C-7.82111328 13.99507812 -8.57972656 14.74015625 -9.36132812 15.5078125 C-11.23432207 17.34546694 -13.11395611 19.17575724 -15 21 C-15.66 20.67 -16.32 20.34 -17 20 C-16.52054932 19.53625977 -16.04109863 19.07251953 -15.54711914 18.59472656 C-13.37773106 16.48772714 -11.22008101 14.36908551 -9.0625 12.25 C-8.30775391 11.52039062 -7.55300781 10.79078125 -6.77539062 10.0390625 C-6.05673828 9.33007812 -5.33808594 8.62109375 -4.59765625 7.890625 C-3.93258057 7.24125977 -3.26750488 6.59189453 -2.58227539 5.92285156 C-0.92186072 3.90504167 -0.40001452 2.55412996 0 0 Z " fill="#E7FAFE" transform="translate(50,27)"/>
<path d="M0 0 C0.66 1.32 1.32 2.64 2 4 C2.99 4 3.98 4 5 4 C3.6056126 6.78877479 1.43804914 8.09713238 -1 10 C-1.66 10.66 -2.32 11.32 -3 12 C-4.46726798 8.18510326 -3.43336419 5.70988378 -2 2 C-1.34 2 -0.68 2 0 2 C0 1.34 0 0.68 0 0 Z " fill="#E61F43" transform="translate(29,24)"/>
<path d="M0 0 C0.33 0.66 0.66 1.32 1 2 C0.2884375 3.4540625 0.2884375 3.4540625 -0.4375 4.9375 C-2.70443259 9.80110083 -2.25650783 14.74633969 -2 20 C-2.66 20 -3.32 20 -4 20 C-6.02428622 15.95142756 -5.13005291 11.59024013 -4.1875 7.3125 C-3.11273975 4.31448455 -2.0845019 2.36875215 0 0 Z " fill="#E4D1EB" transform="translate(27,22)"/>
<path d="M0 0 C0.99 0.33 1.98 0.66 3 1 C-0.96 4.96 -4.92 8.92 -9 13 C-9.66 12.34 -10.32 11.68 -11 11 C-10.34 11 -9.68 11 -9 11 C-9 10.01 -9 9.02 -9 8 C-8.01 8 -7.02 8 -6 8 C-5.7525 7.4225 -5.505 6.845 -5.25 6.25 C-3.83316683 3.6997003 -2.12372463 1.98214299 0 0 Z " fill="#DCF4FE" transform="translate(21,15)"/>
<path d="M0 0 C0.33 0 0.66 0 1 0 C1.08955898 3.22412329 0.77827844 5.88688623 0 9 C0.33 9.33 0.66 9.66 1 10 C1.23192865 11.51469448 1.41215238 13.03754562 1.5625 14.5625 C1.64628906 15.38878906 1.73007812 16.21507813 1.81640625 17.06640625 C1.90728516 18.02353516 1.90728516 18.02353516 2 19 C1.34 19 0.68 19 0 19 C-2.18019305 12.32315878 -3.19585333 6.5914475 0 0 Z " fill="#D1415E" transform="translate(26,26)"/>
<path d="M0 0 C2.00720923 0.28674418 4.0085944 0.61866701 6 1 C5.67 2.65 5.34 4.3 5 6 C3.35 6 1.7 6 0 6 C-0.38218767 4.34385343 -0.71395102 2.67542976 -1 1 C-0.67 0.67 -0.34 0.34 0 0 Z " fill="#FCF3F0" transform="translate(36,8)"/>
<path d="M0 0 C4 4.75 4 4.75 4 7 C4.66 7 5.32 7 6 7 C6.33 6.34 6.66 5.68 7 5 C7 5.99 7 6.98 7 8 C5.35 8.33 3.7 8.66 2 9 C2 8.34 2 7.68 2 7 C1.01 6.67 0.02 6.34 -1 6 C-0.67 4.02 -0.34 2.04 0 0 Z " fill="#FDE5F1" transform="translate(25,43)"/>
<path d="M0 0 C1.32 0.33 2.64 0.66 4 1 C3.34 3.64 2.68 6.28 2 9 C1.34 8.67 0.68 8.34 0 8 C0.33 6.02 0.66 4.04 1 2 C-0.32 2.33 -1.64 2.66 -3 3 C-1.75 1.4375 -1.75 1.4375 0 0 Z " fill="#0D689B" transform="translate(30,12)"/>
<path d="M0 0 C1.32 0 2.64 0 4 0 C4 1.98 4 3.96 4 6 C4.66 6.33 5.32 6.66 6 7 C4.02 7.66 2.04 8.32 0 9 C0.185625 7.88625 0.37125 6.7725 0.5625 5.625 C1.31680657 2.17431139 1.31680657 2.17431139 0 0 Z " fill="#F7D1D9" transform="translate(41,14)"/>
<path d="M0 0 C0.2784375 0.8971875 0.2784375 0.8971875 0.5625 1.8125 C2.72273753 5.09981799 5.35107655 5.64854687 9 7 C9 7.33 9 7.66 9 8 C5.6875 8.25 5.6875 8.25 2 8 C0 6.25 0 6.25 -1 4 C-0.6875 1.75 -0.6875 1.75 0 0 Z " fill="#CFC5E3" transform="translate(34,17)"/>
<path d="M0 0 C0.99 0.33 1.98 0.66 3 1 C3.33 1.99 3.66 2.98 4 4 C3.38125 4.28875 2.7625 4.5775 2.125 4.875 C-0.13325765 5.93720042 -0.13325765 5.93720042 -2 8 C-2.33 6.02 -2.66 4.04 -3 2 C-2.34 2 -1.68 2 -1 2 C-0.67 1.34 -0.34 0.68 0 0 Z " fill="#2566A6" transform="translate(27,17)"/>
<path d="M0 0 C0.66 0.33 1.32 0.66 2 1 C2.625 3.0625 2.625 3.0625 3 5 C0.50907189 6.24546405 -0.41080733 5.7767578 -3 5 C-2.625 3.0625 -2.625 3.0625 -2 1 C-1.34 0.67 -0.68 0.34 0 0 Z " fill="#0B6DB4" transform="translate(37,36)"/>
<path d="M0 0 C0.33 0.99 0.66 1.98 1 3 C-0.2739589 5.03833424 -1.61061923 7.03852126 -3 9 C-3.33 9.99 -3.66 10.98 -4 12 C-4.66 12 -5.32 12 -6 12 C-4.68139111 7.38486888 -2.78644563 3.90102388 0 0 Z " fill="#2A70A0" transform="translate(38,30)"/>
<path d="M0 0 C1.67542976 0.28604898 3.34385343 0.61781233 5 1 C4.67 1.99 4.34 2.98 4 4 C1.9375 4.6875 1.9375 4.6875 0 5 C-0.5625 3.0625 -0.5625 3.0625 -1 1 C-0.67 0.67 -0.34 0.34 0 0 Z " fill="#E72044" transform="translate(37,15)"/>
<path d="M0 0 C-0.33 1.32 -0.66 2.64 -1 4 C-1.66 4 -2.32 4 -3 4 C-3.66 4.99 -4.32 5.98 -5 7 C-5.33 5.35 -5.66 3.7 -6 2 C-2.25 0 -2.25 0 0 0 Z " fill="#0569B4" transform="translate(31,14)"/>
<path d="M0 0 C-2.31 1.65 -4.62 3.3 -7 5 C-6.67 3.35 -6.34 1.7 -6 0 C-3 -1 -3 -1 0 0 Z " fill="#DAF5FE" transform="translate(31,10)"/>
</svg>
