<?xml version="1.0" standalone="no"?>
<!DOCTYPE svg PUBLIC "-//W3C//DTD SVG 20010904//EN"
 "http://www.w3.org/TR/2001/REC-SVG-20010904/DTD/svg10.dtd">
<svg version="1.0" xmlns="http://www.w3.org/2000/svg"
 width="1280.000000pt" height="1280.000000pt" viewBox="0 0 1280.000000 1280.000000"
 preserveAspectRatio="xMidYMid meet">
<metadata>
Created by potrace 1.15, written by Peter Selinger 2001-2017
</metadata>
<g transform="translate(0.000000,1280.000000) scale(0.100000,-0.100000)"
fill="#000000" stroke="none">
<path d="M6280 11769 c-397 -47 -724 -339 -832 -741 l-23 -83 -2 -3290 -3
-3289 -758 755 c-470 470 -780 771 -817 796 -264 176 -579 219 -870 120 -322
-110 -566 -383 -642 -720 -23 -104 -23 -309 1 -412 35 -153 107 -299 211 -425
80 -97 3212 -3221 3270 -3262 144 -100 328 -171 490 -187 263 -26 544 66 752
249 140 122 3188 3184 3239 3253 82 110 144 253 175 402 7 33 13 119 12 190
-1 104 -6 149 -26 226 -172 661 -930 947 -1502 566 -37 -24 -347 -326 -817
-796 l-758 -756 0 3240 c0 3491 2 3335 -50 3495 -109 330 -392 583 -730 655
-90 19 -231 25 -320 14z"/>
</g>
</svg>
