<?xml version="1.0" encoding="utf-8"?>
<!-- Svg Vector Icons : http://www.onlinewebfonts.com/icon -->
<!DOCTYPE svg PUBLIC "-//W3C//DTD SVG 1.1//EN" "http://www.w3.org/Graphics/SVG/1.1/DTD/svg11.dtd">
<svg version="1.1" xmlns="http://www.w3.org/2000/svg" xmlns:xlink="http://www.w3.org/1999/xlink" x="0px" y="0px" viewBox="0 0 256 256" enable-background="new 0 0 256 256" xml:space="preserve">
<metadata> Svg Vector Icons : http://www.onlinewebfonts.com/icon </metadata>
<g><g><path fill="#000000" d="M181,178.6c7.4-7.5,12.1-17.2,13.5-27.7c1.7-12.9-1.7-25.6-9.6-35.9c-7.9-10.3-19.3-16.9-32.2-18.6c-2.1-0.3-4.3-0.4-6.4-0.4c-11.7,0-23,4.2-31.8,11.9c-8.9,7.8-14.7,18.5-16.2,30.3c-1.7,12.9,1.7,25.6,9.6,35.9s19.3,16.9,32.2,18.6c2.1,0.3,4.3,0.4,6.4,0.4c10.1,0,19.9-3.2,28.1-9l37.3,48.5l6.8-5.2L181,178.6z M141.1,184.3c-21.9-2.9-37.3-23-34.4-44.9c2.6-19.8,19.6-34.8,39.6-34.8c1.8,0,3.5,0.1,5.3,0.3c10.6,1.4,20,6.8,26.5,15.3c6.5,8.5,9.3,19,7.9,29.5c-2.6,19.8-19.6,34.8-39.6,34.8C144.6,184.6,142.8,184.5,141.1,184.3z"/><path fill="#000000" d="M46,176.3h44.7c1,7.7,4.5,14.8,10,20.3c6.6,6.6,15.4,10.2,24.7,10.2v-8.5c-14.5,0-26.3-11.8-26.4-26.3l0-4.2H46.7L68.8,43.5h6.9v36.8h102.6V43.5h6.9L208,171.8v31.4h8.6V171L192.4,34.9h-14V10H75.7v24.9h-14L37.5,170.6l-0.1,0.4v75h156.2v-8.5H46V176.3z M84.3,18.5h85.5v53.2H84.3V18.5z"/><path fill="#000000" d="M60.4,134.5h25.2v8.5H60.4V134.5z"/><path fill="#000000" d="M76.1,103.3h27.5v8.5H76.1V103.3z"/></g></g>
</svg>